<svg xmlns="http://www.w3.org/2000/svg" xmlns:xlink="http://www.w3.org/1999/xlink" width="500" zoomAndPan="magnify" viewBox="0 0 375 374.999991" height="500" preserveAspectRatio="xMidYMid meet" version="1.0"><defs><g/></defs><g fill="#ffffff" fill-opacity="1"><g transform="translate(151.200682, 201.384911)"><g><path d="M 30.027344 -43.464844 L 60.765625 0 L 89.648438 0 L 50.902344 -48.613281 L 88.21875 -97.226562 L 60.765625 -97.226562 L 30.027344 -53.761719 L 30.027344 -97.226562 L 8.578125 -97.226562 L 8.578125 0 L 30.027344 0 Z M 30.027344 -43.464844 "/></g></g></g><g fill="#ffffff" fill-opacity="1"><g transform="translate(102.398683, 179.287089)"><g><path d="M 42.785156 -15.6875 C 34.226562 -15.6875 27.808594 -23.101562 27.808594 -31.515625 C 27.808594 -39.789062 34.226562 -47.203125 42.785156 -47.203125 C 51.339844 -47.203125 57.757812 -39.789062 57.757812 -31.515625 C 57.757812 -23.101562 51.339844 -15.6875 42.785156 -15.6875 Z M 57.757812 -55.191406 C 51.625 -62.320312 44.210938 -64.316406 36.222656 -64.316406 C 18.398438 -64.316406 4.992188 -48.914062 4.992188 -31.515625 C 4.992188 -14.117188 18.398438 1.425781 36.222656 1.425781 C 44.210938 1.425781 53.480469 -1.140625 57.757812 -7.699219 L 57.757812 2.28125 C 57.757812 11.265625 51.054688 19.824219 41.644531 19.824219 C 34.796875 19.824219 28.949219 15.402344 27.382812 7.984375 L 5.988281 7.984375 C 6.988281 27.097656 25.671875 35.652344 42.785156 35.652344 C 62.75 35.652344 79.148438 20.535156 79.148438 -0.144531 L 79.148438 -62.890625 L 57.757812 -62.890625 Z M 57.757812 -55.191406 "/></g></g></g></svg>